<svg xmlns="http://www.w3.org/2000/svg" version="1.1" xmlns:xlink="http://www.w3.org/1999/xlink"  width="512" height="512" x="0" y="0" viewBox="0 0 512 512" style="enable-background:new 0 0 512 512" xml:space="preserve" class=""><g><path d="M307.127 348H204.873A40.919 40.919 0 0 1 164 307.127V204.873A40.919 40.919 0 0 1 204.873 164h102.254A40.919 40.919 0 0 1 348 204.873v102.254A40.919 40.919 0 0 1 307.127 348ZM204.873 189A15.891 15.891 0 0 0 189 204.873v102.254A15.891 15.891 0 0 0 204.873 323h102.254A15.891 15.891 0 0 0 323 307.127V204.873A15.891 15.891 0 0 0 307.127 189ZM5.009 5.008A16.991 16.991 0 0 0 0 17.1v79.945a12.525 12.525 0 1 0 25.049 0V42.761l112.7 112.7a12.525 12.525 0 0 0 17.713-17.712l-112.7-112.7h54.284a12.525 12.525 0 0 0 0-25.049H17.1A16.98 16.98 0 0 0 5.009 5.008ZM506.992 506.991A16.991 16.991 0 0 1 494.9 512h-79.945a12.525 12.525 0 1 1 0-25.049h54.284l-112.7-112.7a12.525 12.525 0 1 1 17.712-17.713l112.7 112.7v-54.284a12.525 12.525 0 0 1 25.049 0V494.9a16.98 16.98 0 0 1-5.008 12.091ZM5.008 506.991A16.991 16.991 0 0 0 17.1 512h79.945a12.525 12.525 0 1 0 0-25.049H42.761l112.7-112.7a12.525 12.525 0 1 0-17.712-17.713l-112.7 112.7v-54.284a12.525 12.525 0 0 0-25.049 0V494.9a16.98 16.98 0 0 0 5.008 12.091ZM506.991 5.008A16.991 16.991 0 0 1 512 17.1v79.945a12.525 12.525 0 1 1-25.049 0V42.761l-112.7 112.7a12.525 12.525 0 1 1-17.713-17.712l112.7-112.7h-54.284a12.525 12.525 0 0 1 0-25.049H494.9a16.98 16.98 0 0 1 12.091 5.008Z" fill="#FFFFFF" data-original="#000000" class=""></path></g></svg>