<svg width="43" height="23" viewBox="0 0 43 23" fill="none" xmlns="http://www.w3.org/2000/svg">
<path d="M9.4 0.535999C11.768 0.535999 13.8373 1.00533 15.608 1.944C17.3787 2.88267 18.744 4.20533 19.704 5.912C20.6853 7.59733 21.176 9.54933 21.176 11.768C21.176 13.9653 20.6853 15.9173 19.704 17.624C18.744 19.3307 17.368 20.6533 15.576 21.592C13.8053 22.5307 11.7467 23 9.4 23H0.984V0.535999H9.4ZM9.048 18.264C11.1173 18.264 12.728 17.6987 13.88 16.568C15.032 15.4373 15.608 13.8373 15.608 11.768C15.608 9.69867 15.032 8.088 13.88 6.936C12.728 5.784 11.1173 5.208 9.048 5.208H6.456V18.264H9.048ZM42.058 0.535999V4.92H32.906V9.656H39.754V13.912H32.906V23H27.434V0.535999H42.058Z" fill="url(#paint0_linear_3_11)"/>
<defs>
<linearGradient id="paint0_linear_3_11" x1="44" y1="-12" x2="-5.5" y2="-12" gradientUnits="userSpaceOnUse">
<stop stop-color="#7084B2"/>
<stop offset="1" stop-color="#BAC8E0"/>
</linearGradient>
</defs>
</svg>
