<svg width="100" height="100" viewBox="0 0 100 100" fill="none" xmlns="http://www.w3.org/2000/svg">
<path d="M50 70.8334C23.125 70.8334 2.08337 61.6667 2.08337 50C2.08337 38.3334 23.125 29.1667 50 29.1667C76.875 29.1667 97.9167 38.3334 97.9167 50C97.9167 61.6667 76.875 70.8334 50 70.8334ZM50 33.3334C23.75 33.3334 6.25004 41.875 6.25004 50C6.25004 58.125 23.75 66.6667 50 66.6667C76.25 66.6667 93.75 58.125 93.75 50C93.75 41.875 76.25 33.3334 50 33.3334Z" fill="#149ECA"/>
<path d="M31.4583 92.9167C29.375 92.9167 27.7083 92.5 26.0416 91.4584C15.8333 85.625 18.5416 62.9167 31.875 39.5834C38.125 28.75 45.8333 19.5834 53.3333 13.75C61.4583 7.50002 68.75 5.62502 73.75 8.54169C78.9583 11.4584 80.8333 18.75 79.5833 28.9584C78.3333 38.5417 74.1666 49.7917 67.9166 60.625C61.6666 71.4584 53.9583 80.625 46.4583 86.4584C41.0416 90.625 35.8333 92.9167 31.4583 92.9167ZM68.5416 11.25C65.2083 11.25 60.8333 13.125 56.0416 16.875C48.9583 22.5 41.6666 31.25 35.625 41.6667C22.5 64.375 21.25 83.9584 28.125 87.9167C31.6666 90 37.5 88.125 43.9583 83.125C51.0416 77.5 58.3333 68.75 64.375 58.3334C70.4166 47.9167 74.375 37.2917 75.625 28.3334C76.6666 20 75.4166 14.1667 71.875 12.0834C70.8333 11.6667 69.7916 11.25 68.5416 11.25Z" fill="#149ECA"/>
<path d="M68.75 92.9167C58.3333 92.9167 43.3333 80.2084 32.0833 60.4167C18.5416 37.0834 15.8333 14.375 26.0416 8.54169C36.25 2.70836 54.5833 16.25 68.125 39.5834C74.375 50.4167 78.5416 61.6667 79.7916 71.25C81.25 81.4584 79.1666 88.5417 73.9583 91.6667C72.2916 92.5 70.625 92.9167 68.75 92.9167ZM28.125 12.0834C21.25 16.0417 22.5 35.625 35.625 58.3334C48.75 81.0417 65 91.875 71.875 87.9167C75.4166 85.8334 76.6666 80 75.625 71.6667C74.375 62.7084 70.4166 52.0834 64.375 41.6667C51.25 18.9584 35 8.12502 28.125 12.0834Z" fill="#149ECA"/>
<path d="M50 58.3334C54.6023 58.3334 58.3333 54.6024 58.3333 50C58.3333 45.3976 54.6023 41.6667 50 41.6667C45.3976 41.6667 41.6666 45.3976 41.6666 50C41.6666 54.6024 45.3976 58.3334 50 58.3334Z" fill="#149ECA"/>
</svg>
